<?xml version="1.0" encoding="UTF-8" standalone="no"?>
<svg
   xmlns:dc="http://purl.org/dc/elements/1.1/"
   xmlns:cc="http://creativecommons.org/ns#"
   xmlns:rdf="http://www.w3.org/1999/02/22-rdf-syntax-ns#"
   xmlns:svg="http://www.w3.org/2000/svg"
   xmlns="http://www.w3.org/2000/svg"
   xmlns:sodipodi="http://sodipodi.sourceforge.net/DTD/sodipodi-0.dtd"
   xmlns:inkscape="http://www.inkscape.org/namespaces/inkscape"
   id="export"
   class="canvas"
   preserveAspectRatio="xMidYMid meet"
   style="position: absolute; margin: 0px;"
   width="118"
   height="976"
   version="1.1"
   sodipodi:docname="network_model.svg"
   inkscape:version="0.92.4 5da689c313, 2019-01-14">
  <metadata
     id="metadata477">
    <rdf:RDF>
      <cc:Work
         rdf:about="">
        <dc:format>image/svg+xml</dc:format>
        <dc:type
           rdf:resource="http://purl.org/dc/dcmitype/StillImage" />
        <dc:title></dc:title>
      </cc:Work>
    </rdf:RDF>
  </metadata>
  <defs
     id="defs475" />
  <sodipodi:namedview
     pagecolor="#ffffff"
     bordercolor="#666666"
     borderopacity="1"
     objecttolerance="10"
     gridtolerance="10"
     guidetolerance="10"
     inkscape:pageopacity="0"
     inkscape:pageshadow="2"
     inkscape:window-width="947"
     inkscape:window-height="1008"
     id="namedview473"
     showgrid="false"
     inkscape:zoom="1.9344262"
     inkscape:cx="40.033878"
     inkscape:cy="876.2924"
     inkscape:window-x="965"
     inkscape:window-y="36"
     inkscape:window-maximized="0"
     inkscape:current-layer="export" />
  <g
     id="origin"
     transform="translate(5.344921875000001, 5.344921875000001) scale(1)">
    <g
       id="clusters"
       class="clusters" />
    <g
       id="edge-paths"
       class="edge-paths">
      <defs
         id="defs7">
        <marker
           id="arrowhead-vee"
           viewBox="0 0 10 10"
           refX="9"
           refY="5"
           markerUnits="strokeWidth"
           markerWidth="8"
           markerHeight="6"
           orient="auto"
           style="fill: rgb(0, 0, 0);">
          <path
             d="M 0 0 L 10 5 L 0 10 L 4 5 z"
             style="stroke-width: 1; stroke-dasharray: 1, 0;"
             id="path4" />
        </marker>
      </defs>
      <path
         class="edge-path"
         d="M52.5703125,21.000001907348633L52.5703125,24.4166685740153C52.5703125,27.833335240681965,52.5703125,34.6666685740153,52.5703125,41.50000190734863C52.5703125,48.33333524068197,52.5703125,55.1666685740153,52.5703125,58.58333524068197L52.5703125,62.00000190734863"
         marker-end="url(#arrowhead-vee)"
         id="edge-input"
         style="stroke: rgb(0, 0, 0); stroke-width: 1px; fill: none;" />
      <path
         class="edge-path"
         d="M52.5703125,149.00000190734863L52.5703125,150.6666685740153C52.5703125,152.33333524068198,52.5703125,155.6666685740153,52.5703125,159.00000190734863C52.5703125,162.33333524068198,52.5703125,165.6666685740153,52.5703125,167.33333524068198L52.5703125,169.00000190734863"
         marker-end="url(#arrowhead-vee)"
         id="edge-conv2d"
         style="stroke: rgb(0, 0, 0); stroke-width: 1px; fill: none;" />
      <path
         class="edge-path"
         d="M52.5703125,190.00000381469727L52.5703125,191.66667048136392C52.5703125,193.3333371480306,52.5703125,196.66667048136392,52.5703125,200.00000381469727C52.5703125,203.3333371480306,52.5703125,206.66667048136392,52.5703125,208.3333371480306L52.5703125,210.00000381469727"
         marker-end="url(#arrowhead-vee)"
         id="edge-max_pooling2d"
         style="stroke: rgb(0, 0, 0); stroke-width: 1px; fill: none;" />
      <path
         class="edge-path"
         d="M52.5703125,297.00000381469727L52.5703125,298.66667048136395C52.5703125,300.3333371480306,52.5703125,303.66667048136395,52.5703125,307.00000381469727C52.5703125,310.3333371480306,52.5703125,313.66667048136395,52.5703125,315.3333371480306L52.5703125,317.00000381469727"
         marker-end="url(#arrowhead-vee)"
         id="edge-conv2d_1"
         style="stroke: rgb(0, 0, 0); stroke-width: 1px; fill: none;" />
      <path
         class="edge-path"
         d="M52.5703125,338.0000057220459L52.5703125,339.6666723887126C52.5703125,341.3333390553792,52.5703125,344.6666723887126,52.5703125,348.0000057220459C52.5703125,351.3333390553792,52.5703125,354.6666723887126,52.5703125,356.3333390553792L52.5703125,358.0000057220459"
         marker-end="url(#arrowhead-vee)"
         id="edge-max_pooling2d_1"
         style="stroke: rgb(0, 0, 0); stroke-width: 1px; fill: none;" />
      <path
         class="edge-path"
         d="M52.5703125,445.0000057220459L52.5703125,446.6666723887126C52.5703125,448.3333390553792,52.5703125,451.6666723887126,52.5703125,455.0000057220459C52.5703125,458.3333390553792,52.5703125,461.6666723887126,52.5703125,463.3333390553792L52.5703125,465.0000057220459"
         marker-end="url(#arrowhead-vee)"
         id="edge-conv2d_2"
         style="stroke: rgb(0, 0, 0); stroke-width: 1px; fill: none;" />
      <path
         class="edge-path"
         d="M52.5703125,486.00000762939453L52.5703125,487.6666742960612C52.5703125,489.33334096272785,52.5703125,492.6666742960612,52.5703125,496.00000762939453C52.5703125,499.33334096272785,52.5703125,502.6666742960612,52.5703125,504.33334096272785L52.5703125,506.00000762939453"
         marker-end="url(#arrowhead-vee)"
         id="edge-max_pooling2d_2"
         style="stroke: rgb(0, 0, 0); stroke-width: 1px; fill: none;" />
      <path
         class="edge-path"
         d="M52.5703125,593.0000076293945L52.5703125,594.6666742960612C52.5703125,596.3333409627279,52.5703125,599.6666742960612,52.5703125,603.0000076293945C52.5703125,606.3333409627279,52.5703125,609.6666742960612,52.5703125,611.3333409627279L52.5703125,613.0000076293945"
         marker-end="url(#arrowhead-vee)"
         id="edge-conv2d_3"
         style="stroke: rgb(0, 0, 0); stroke-width: 1px; fill: none;" />
      <path
         class="edge-path"
         d="M52.5703125,634.0000095367432L52.5703125,635.6666762034098C52.5703125,637.3333428700765,52.5703125,640.6666762034098,52.5703125,644.0000095367432C52.5703125,647.3333428700765,52.5703125,650.6666762034098,52.5703125,652.3333428700765L52.5703125,654.0000095367432"
         marker-end="url(#arrowhead-vee)"
         id="edge-max_pooling2d_3"
         style="stroke: rgb(0, 0, 0); stroke-width: 1px; fill: none;" />
      <path
         class="edge-path"
         d="M52.5703125,675.0000114440918L52.5703125,676.6666781107584C52.5703125,678.3333447774252,52.5703125,681.6666781107584,52.5703125,685.0000114440918C52.5703125,688.3333447774252,52.5703125,691.6666781107584,52.5703125,693.3333447774252L52.5703125,695.0000114440918"
         marker-end="url(#arrowhead-vee)"
         id="edge-flatten"
         style="stroke: rgb(0, 0, 0); stroke-width: 1px; fill: none;" />
      <path
         class="edge-path"
         d="M52.5703125,734.0000114440918L52.5703125,735.6666781107584C52.5703125,737.3333447774252,52.5703125,740.6666781107584,52.5703125,744.0000114440918C52.5703125,747.3333447774252,52.5703125,750.6666781107584,52.5703125,752.3333447774252L52.5703125,754.0000114440918"
         marker-end="url(#arrowhead-vee)"
         id="edge-dropout"
         style="stroke: rgb(0, 0, 0); stroke-width: 1px; fill: none;" />
      <path
         class="edge-path"
         d="M52.5703125,829.0000114440918L52.5703125,830.6666781107584C52.5703125,832.3333447774252,52.5703125,835.6666781107584,52.5703125,839.0000114440918C52.5703125,842.3333447774252,52.5703125,845.6666781107584,52.5703125,847.3333447774252L52.5703125,849.0000114440918"
         marker-end="url(#arrowhead-vee)"
         id="edge-dense"
         style="stroke: rgb(0, 0, 0); stroke-width: 1px; fill: none;" />
      <path
         class="edge-path"
         d="M52.5703125,924.0000114440918L52.5703125,925.6666781107584C52.5703125,927.3333447774252,52.5703125,930.6666781107584,52.5703125,934.0000114440918C52.5703125,937.3333447774252,52.5703125,940.6666781107584,52.5703125,942.3333447774252L52.5703125,944.0000114440918"
         marker-end="url(#arrowhead-vee)"
         id="edge-dense_1"
         style="stroke: rgb(0, 0, 0); stroke-width: 1px; fill: none;" />
    </g>
    <g
       id="edge-labels"
       class="edge-labels">
      <g
         class="edge-label"
         transform="translate(81.734375,41.50000190734863)"
         style="opacity: 1;"
         id="g29">
        <g
           transform="translate(-24.1640625,-5.5)"
           id="g27">
          <text
             style="font-family: -apple-system, BlinkMacSystemFont, &quot;Segoe WPC&quot;, &quot;Segoe UI&quot;, Ubuntu, &quot;Droid Sans&quot;, sans-serif; font-size: 10px;"
             id="text25">
            <tspan
               xml:space="preserve"
               dy="1em"
               x="1"
               id="tspan23">?×48×48×3</tspan>          </text>
        </g>
      </g>
    </g>
    <g
       id="nodes"
       class="nodes">
      <g
         id="node-conv2d"
         class="node"
         transform="translate(52.5703125,105.50000190734863)"
         style="opacity: 1;">
        <g
           transform="translate(-50,-43.5)"
           id="g82">
          <g
             id="g80">
            <g
               class="node-item node-item-operator node-item-operator-layer"
               transform="translate(0,0)"
               id="g38">
              <path
                 d="M5,0h90a5,5 0 0 1 5,5v16a0,0 0 0 1 0,0h-100a0,0 0 0 1 0,0v-16a5,5 0 0 1 5,-5z"
                 style="stroke: rgb(0, 0, 0); fill: rgb(51, 85, 136); stroke-width: 0;"
                 id="path32" />
              <text
                 x="6"
                 y="14"
                 style="font-family: -apple-system, BlinkMacSystemFont, &quot;Segoe WPC&quot;, &quot;Segoe UI&quot;, Ubuntu, &quot;Droid Sans&quot;, sans-serif; font-size: 11px; text-rendering: geometricprecision; fill: rgb(255, 255, 255);"
                 id="text34">Conv2D</text>
              <title
                 id="title36">conv2d</title>
            </g>
            <g
               class="node-attribute"
               transform="translate(0,21)"
               id="g76">
              <path
                 d="M0,0h100a0,0 0 0 1 0,0v61a5,5 0 0 1 -5,5h-90a5,5 0 0 1 -5,-5v-61a0,0 0 0 1 0,0z"
                 style="stroke: rgb(0, 0, 0); fill: rgb(255, 255, 255); stroke-width: 0;"
                 id="path40" />
              <text
                 id="initializer-conv2d/kernel:0"
                 xml:space="preserve"
                 x="6"
                 y="12"
                 style="font-family: -apple-system, BlinkMacSystemFont, &quot;Segoe WPC&quot;, &quot;Segoe UI&quot;, Ubuntu, &quot;Droid Sans&quot;, sans-serif; font-size: 9px; font-weight: normal; text-rendering: geometricprecision;"><title
                   id="title42">float32[3,3,3,32]</title><tspan
                   style="font-weight: bold;"
                   id="tspan44">kernel</tspan><tspan
                   id="tspan46">〈3×3×3×32〉</tspan></text>
              <text
                 id="initializer-conv2d/bias:0"
                 xml:space="preserve"
                 x="6"
                 y="24"
                 style="font-family: -apple-system, BlinkMacSystemFont, &quot;Segoe WPC&quot;, &quot;Segoe UI&quot;, Ubuntu, &quot;Droid Sans&quot;, sans-serif; font-size: 9px; font-weight: normal; text-rendering: geometricprecision;"><title
                   id="title49">float32[32]</title><tspan
                   style="font-weight: bold;"
                   id="tspan51">bias</tspan><tspan
                   id="tspan53">〈32〉</tspan></text>
              <text
                 xml:space="preserve"
                 x="6"
                 y="36"
                 style="font-family: -apple-system, BlinkMacSystemFont, &quot;Segoe WPC&quot;, &quot;Segoe UI&quot;, Ubuntu, &quot;Droid Sans&quot;, sans-serif; font-size: 9px; font-weight: normal; text-rendering: geometricprecision;"
                 id="text60"><tspan
                   id="tspan56">filters</tspan><tspan
                   id="tspan58"> = 32</tspan></text>
              <text
                 xml:space="preserve"
                 x="6"
                 y="48"
                 style="font-family: -apple-system, BlinkMacSystemFont, &quot;Segoe WPC&quot;, &quot;Segoe UI&quot;, Ubuntu, &quot;Droid Sans&quot;, sans-serif; font-size: 9px; font-weight: normal; text-rendering: geometricprecision;"
                 id="text66"><tspan
                   id="tspan62">kernel_size</tspan><tspan
                   id="tspan64"> = 3, 3</tspan></text>
              <text
                 xml:space="preserve"
                 x="6"
                 y="60"
                 style="font-family: -apple-system, BlinkMacSystemFont, &quot;Segoe WPC&quot;, &quot;Segoe UI&quot;, Ubuntu, &quot;Droid Sans&quot;, sans-serif; font-size: 9px; font-weight: normal; text-rendering: geometricprecision;"
                 id="text72"><tspan
                   id="tspan68">activation</tspan><tspan
                   id="tspan70"> = relu</tspan></text>
              <line
                 class="node"
                 x1="0"
                 x2="100"
                 y1="0"
                 y2="0"
                 style="stroke: rgb(51, 51, 51); fill: none; stroke-width: 1px;"
                 id="line74" />
            </g>
            <path
               class="node border"
               d="M5,0h90a5,5 0 0 1 5,5v77a5,5 0 0 1 -5,5h-90a5,5 0 0 1 -5,-5v-77a5,5 0 0 1 5,-5z"
               style="stroke: rgb(51, 51, 51); fill: none; stroke-width: 1px;"
               id="path78" />
          </g>
        </g>
      </g>
      <g
         id="node-max_pooling2d"
         class="node"
         transform="translate(52.5703125,179.50000286102295)"
         style="opacity: 1;">
        <g
           transform="translate(-42.703128814697266,-10.500000953674316)"
           id="g97">
          <g
             id="g95">
            <g
               class="node-item node-item-operator node-item-operator-pool"
               transform="translate(0,0)"
               id="g91">
              <path
                 d="M5,0h75.40625a5,5 0 0 1 5,5v11a5,5 0 0 1 -5,5h-75.40625a5,5 0 0 1 -5,-5v-11a5,5 0 0 1 5,-5z"
                 style="stroke: rgb(0, 0, 0); fill: rgb(51, 85, 51); stroke-width: 0;"
                 id="path85" />
              <text
                 x="6"
                 y="14"
                 style="font-family: -apple-system, BlinkMacSystemFont, &quot;Segoe WPC&quot;, &quot;Segoe UI&quot;, Ubuntu, &quot;Droid Sans&quot;, sans-serif; font-size: 11px; text-rendering: geometricprecision; fill: rgb(255, 255, 255);"
                 id="text87">MaxPooling2D</text>
              <title
                 id="title89">max_pooling2d</title>
            </g>
            <path
               class="node border"
               d="M5,0h75.40625a5,5 0 0 1 5,5v11a5,5 0 0 1 -5,5h-75.40625a5,5 0 0 1 -5,-5v-11a5,5 0 0 1 5,-5z"
               style="stroke: rgb(51, 51, 51); fill: none; stroke-width: 1px;"
               id="path93" />
          </g>
        </g>
      </g>
      <g
         id="node-conv2d_1"
         class="node"
         transform="translate(52.5703125,253.50000381469727)"
         style="opacity: 1;">
        <g
           transform="translate(-50,-43.5)"
           id="g150">
          <g
             id="g148">
            <g
               class="node-item node-item-operator node-item-operator-layer"
               transform="translate(0,0)"
               id="g106">
              <path
                 d="M5,0h90a5,5 0 0 1 5,5v16a0,0 0 0 1 0,0h-100a0,0 0 0 1 0,0v-16a5,5 0 0 1 5,-5z"
                 style="stroke: rgb(0, 0, 0); fill: rgb(51, 85, 136); stroke-width: 0;"
                 id="path100" />
              <text
                 x="6"
                 y="14"
                 style="font-family: -apple-system, BlinkMacSystemFont, &quot;Segoe WPC&quot;, &quot;Segoe UI&quot;, Ubuntu, &quot;Droid Sans&quot;, sans-serif; font-size: 11px; text-rendering: geometricprecision; fill: rgb(255, 255, 255);"
                 id="text102">Conv2D</text>
              <title
                 id="title104">conv2d_1</title>
            </g>
            <g
               class="node-attribute"
               transform="translate(0,21)"
               id="g144">
              <path
                 d="M0,0h100a0,0 0 0 1 0,0v61a5,5 0 0 1 -5,5h-90a5,5 0 0 1 -5,-5v-61a0,0 0 0 1 0,0z"
                 style="stroke: rgb(0, 0, 0); fill: rgb(255, 255, 255); stroke-width: 0;"
                 id="path108" />
              <text
                 id="initializer-conv2d_1/kernel:0"
                 xml:space="preserve"
                 x="6"
                 y="12"
                 style="font-family: -apple-system, BlinkMacSystemFont, &quot;Segoe WPC&quot;, &quot;Segoe UI&quot;, Ubuntu, &quot;Droid Sans&quot;, sans-serif; font-size: 9px; font-weight: normal; text-rendering: geometricprecision;"><title
                   id="title110">float32[3,3,32,64]</title><tspan
                   style="font-weight: bold;"
                   id="tspan112">kernel</tspan><tspan
                   id="tspan114">〈3×3×32×64〉</tspan></text>
              <text
                 id="initializer-conv2d_1/bias:0"
                 xml:space="preserve"
                 x="6"
                 y="24"
                 style="font-family: -apple-system, BlinkMacSystemFont, &quot;Segoe WPC&quot;, &quot;Segoe UI&quot;, Ubuntu, &quot;Droid Sans&quot;, sans-serif; font-size: 9px; font-weight: normal; text-rendering: geometricprecision;"><title
                   id="title117">float32[64]</title><tspan
                   style="font-weight: bold;"
                   id="tspan119">bias</tspan><tspan
                   id="tspan121">〈64〉</tspan></text>
              <text
                 xml:space="preserve"
                 x="6"
                 y="36"
                 style="font-family: -apple-system, BlinkMacSystemFont, &quot;Segoe WPC&quot;, &quot;Segoe UI&quot;, Ubuntu, &quot;Droid Sans&quot;, sans-serif; font-size: 9px; font-weight: normal; text-rendering: geometricprecision;"
                 id="text128"><tspan
                   id="tspan124">filters</tspan><tspan
                   id="tspan126"> = 64</tspan></text>
              <text
                 xml:space="preserve"
                 x="6"
                 y="48"
                 style="font-family: -apple-system, BlinkMacSystemFont, &quot;Segoe WPC&quot;, &quot;Segoe UI&quot;, Ubuntu, &quot;Droid Sans&quot;, sans-serif; font-size: 9px; font-weight: normal; text-rendering: geometricprecision;"
                 id="text134"><tspan
                   id="tspan130">kernel_size</tspan><tspan
                   id="tspan132"> = 3, 3</tspan></text>
              <text
                 xml:space="preserve"
                 x="6"
                 y="60"
                 style="font-family: -apple-system, BlinkMacSystemFont, &quot;Segoe WPC&quot;, &quot;Segoe UI&quot;, Ubuntu, &quot;Droid Sans&quot;, sans-serif; font-size: 9px; font-weight: normal; text-rendering: geometricprecision;"
                 id="text140"><tspan
                   id="tspan136">activation</tspan><tspan
                   id="tspan138"> = relu</tspan></text>
              <line
                 class="node"
                 x1="0"
                 x2="100"
                 y1="0"
                 y2="0"
                 style="stroke: rgb(51, 51, 51); fill: none; stroke-width: 1px;"
                 id="line142" />
            </g>
            <path
               class="node border"
               d="M5,0h90a5,5 0 0 1 5,5v77a5,5 0 0 1 -5,5h-90a5,5 0 0 1 -5,-5v-77a5,5 0 0 1 5,-5z"
               style="stroke: rgb(51, 51, 51); fill: none; stroke-width: 1px;"
               id="path146" />
          </g>
        </g>
      </g>
      <g
         id="node-max_pooling2d_1"
         class="node"
         transform="translate(52.5703125,327.5000047683716)"
         style="opacity: 1;">
        <g
           transform="translate(-42.703128814697266,-10.500000953674316)"
           id="g165">
          <g
             id="g163">
            <g
               class="node-item node-item-operator node-item-operator-pool"
               transform="translate(0,0)"
               id="g159">
              <path
                 d="M5,0h75.40625a5,5 0 0 1 5,5v11a5,5 0 0 1 -5,5h-75.40625a5,5 0 0 1 -5,-5v-11a5,5 0 0 1 5,-5z"
                 style="stroke: rgb(0, 0, 0); fill: rgb(51, 85, 51); stroke-width: 0;"
                 id="path153" />
              <text
                 x="6"
                 y="14"
                 style="font-family: -apple-system, BlinkMacSystemFont, &quot;Segoe WPC&quot;, &quot;Segoe UI&quot;, Ubuntu, &quot;Droid Sans&quot;, sans-serif; font-size: 11px; text-rendering: geometricprecision; fill: rgb(255, 255, 255);"
                 id="text155">MaxPooling2D</text>
              <title
                 id="title157">max_pooling2d_1</title>
            </g>
            <path
               class="node border"
               d="M5,0h75.40625a5,5 0 0 1 5,5v11a5,5 0 0 1 -5,5h-75.40625a5,5 0 0 1 -5,-5v-11a5,5 0 0 1 5,-5z"
               style="stroke: rgb(51, 51, 51); fill: none; stroke-width: 1px;"
               id="path161" />
          </g>
        </g>
      </g>
      <g
         id="node-conv2d_2"
         class="node"
         transform="translate(52.5703125,401.5000057220459)"
         style="opacity: 1;">
        <g
           transform="translate(-50.09375,-43.5)"
           id="g218">
          <g
             id="g216">
            <g
               class="node-item node-item-operator node-item-operator-layer"
               transform="translate(0,0)"
               id="g174">
              <path
                 d="M5,0h90.1875a5,5 0 0 1 5,5v16a0,0 0 0 1 0,0h-100.1875a0,0 0 0 1 0,0v-16a5,5 0 0 1 5,-5z"
                 style="stroke: rgb(0, 0, 0); fill: rgb(51, 85, 136); stroke-width: 0;"
                 id="path168" />
              <text
                 x="6"
                 y="14"
                 style="font-family: -apple-system, BlinkMacSystemFont, &quot;Segoe WPC&quot;, &quot;Segoe UI&quot;, Ubuntu, &quot;Droid Sans&quot;, sans-serif; font-size: 11px; text-rendering: geometricprecision; fill: rgb(255, 255, 255);"
                 id="text170">Conv2D</text>
              <title
                 id="title172">conv2d_2</title>
            </g>
            <g
               class="node-attribute"
               transform="translate(0,21)"
               id="g212">
              <path
                 d="M0,0h100.1875a0,0 0 0 1 0,0v61a5,5 0 0 1 -5,5h-90.1875a5,5 0 0 1 -5,-5v-61a0,0 0 0 1 0,0z"
                 style="stroke: rgb(0, 0, 0); fill: rgb(255, 255, 255); stroke-width: 0;"
                 id="path176" />
              <text
                 id="initializer-conv2d_2/kernel:0"
                 xml:space="preserve"
                 x="6"
                 y="12"
                 style="font-family: -apple-system, BlinkMacSystemFont, &quot;Segoe WPC&quot;, &quot;Segoe UI&quot;, Ubuntu, &quot;Droid Sans&quot;, sans-serif; font-size: 9px; font-weight: normal; text-rendering: geometricprecision;"><title
                   id="title178">float32[3,3,64,128]</title><tspan
                   style="font-weight: bold;"
                   id="tspan180">kernel</tspan><tspan
                   id="tspan182">〈3×3×64×128〉</tspan></text>
              <text
                 id="initializer-conv2d_2/bias:0"
                 xml:space="preserve"
                 x="6"
                 y="24"
                 style="font-family: -apple-system, BlinkMacSystemFont, &quot;Segoe WPC&quot;, &quot;Segoe UI&quot;, Ubuntu, &quot;Droid Sans&quot;, sans-serif; font-size: 9px; font-weight: normal; text-rendering: geometricprecision;"><title
                   id="title185">float32[128]</title><tspan
                   style="font-weight: bold;"
                   id="tspan187">bias</tspan><tspan
                   id="tspan189">〈128〉</tspan></text>
              <text
                 xml:space="preserve"
                 x="6"
                 y="36"
                 style="font-family: -apple-system, BlinkMacSystemFont, &quot;Segoe WPC&quot;, &quot;Segoe UI&quot;, Ubuntu, &quot;Droid Sans&quot;, sans-serif; font-size: 9px; font-weight: normal; text-rendering: geometricprecision;"
                 id="text196"><tspan
                   id="tspan192">filters</tspan><tspan
                   id="tspan194"> = 128</tspan></text>
              <text
                 xml:space="preserve"
                 x="6"
                 y="48"
                 style="font-family: -apple-system, BlinkMacSystemFont, &quot;Segoe WPC&quot;, &quot;Segoe UI&quot;, Ubuntu, &quot;Droid Sans&quot;, sans-serif; font-size: 9px; font-weight: normal; text-rendering: geometricprecision;"
                 id="text202"><tspan
                   id="tspan198">kernel_size</tspan><tspan
                   id="tspan200"> = 3, 3</tspan></text>
              <text
                 xml:space="preserve"
                 x="6"
                 y="60"
                 style="font-family: -apple-system, BlinkMacSystemFont, &quot;Segoe WPC&quot;, &quot;Segoe UI&quot;, Ubuntu, &quot;Droid Sans&quot;, sans-serif; font-size: 9px; font-weight: normal; text-rendering: geometricprecision;"
                 id="text208"><tspan
                   id="tspan204">activation</tspan><tspan
                   id="tspan206"> = relu</tspan></text>
              <line
                 class="node"
                 x1="0"
                 x2="100.1875"
                 y1="0"
                 y2="0"
                 style="stroke: rgb(51, 51, 51); fill: none; stroke-width: 1px;"
                 id="line210" />
            </g>
            <path
               class="node border"
               d="M5,0h90.1875a5,5 0 0 1 5,5v77a5,5 0 0 1 -5,5h-90.1875a5,5 0 0 1 -5,-5v-77a5,5 0 0 1 5,-5z"
               style="stroke: rgb(51, 51, 51); fill: none; stroke-width: 1px;"
               id="path214" />
          </g>
        </g>
      </g>
      <g
         id="node-max_pooling2d_2"
         class="node"
         transform="translate(52.5703125,475.5000066757202)"
         style="opacity: 1;">
        <g
           transform="translate(-42.703128814697266,-10.500000953674316)"
           id="g233">
          <g
             id="g231">
            <g
               class="node-item node-item-operator node-item-operator-pool"
               transform="translate(0,0)"
               id="g227">
              <path
                 d="M5,0h75.40625a5,5 0 0 1 5,5v11a5,5 0 0 1 -5,5h-75.40625a5,5 0 0 1 -5,-5v-11a5,5 0 0 1 5,-5z"
                 style="stroke: rgb(0, 0, 0); fill: rgb(51, 85, 51); stroke-width: 0;"
                 id="path221" />
              <text
                 x="6"
                 y="14"
                 style="font-family: -apple-system, BlinkMacSystemFont, &quot;Segoe WPC&quot;, &quot;Segoe UI&quot;, Ubuntu, &quot;Droid Sans&quot;, sans-serif; font-size: 11px; text-rendering: geometricprecision; fill: rgb(255, 255, 255);"
                 id="text223">MaxPooling2D</text>
              <title
                 id="title225">max_pooling2d_2</title>
            </g>
            <path
               class="node border"
               d="M5,0h75.40625a5,5 0 0 1 5,5v11a5,5 0 0 1 -5,5h-75.40625a5,5 0 0 1 -5,-5v-11a5,5 0 0 1 5,-5z"
               style="stroke: rgb(51, 51, 51); fill: none; stroke-width: 1px;"
               id="path229" />
          </g>
        </g>
      </g>
      <g
         id="node-conv2d_3"
         class="node"
         transform="translate(52.5703125,549.5000076293945)"
         style="opacity: 1;">
        <g
           transform="translate(-52.5703125,-43.5)"
           id="g286">
          <g
             id="g284">
            <g
               class="node-item node-item-operator node-item-operator-layer"
               transform="translate(0,0)"
               id="g242">
              <path
                 d="M5,0h95.140625a5,5 0 0 1 5,5v16a0,0 0 0 1 0,0h-105.140625a0,0 0 0 1 0,0v-16a5,5 0 0 1 5,-5z"
                 style="stroke: rgb(0, 0, 0); fill: rgb(51, 85, 136); stroke-width: 0;"
                 id="path236" />
              <text
                 x="6"
                 y="14"
                 style="font-family: -apple-system, BlinkMacSystemFont, &quot;Segoe WPC&quot;, &quot;Segoe UI&quot;, Ubuntu, &quot;Droid Sans&quot;, sans-serif; font-size: 11px; text-rendering: geometricprecision; fill: rgb(255, 255, 255);"
                 id="text238">Conv2D</text>
              <title
                 id="title240">conv2d_3</title>
            </g>
            <g
               class="node-attribute"
               transform="translate(0,21)"
               id="g280">
              <path
                 d="M0,0h105.140625a0,0 0 0 1 0,0v61a5,5 0 0 1 -5,5h-95.140625a5,5 0 0 1 -5,-5v-61a0,0 0 0 1 0,0z"
                 style="stroke: rgb(0, 0, 0); fill: rgb(255, 255, 255); stroke-width: 0;"
                 id="path244" />
              <text
                 id="initializer-conv2d_3/kernel:0"
                 xml:space="preserve"
                 x="6"
                 y="12"
                 style="font-family: -apple-system, BlinkMacSystemFont, &quot;Segoe WPC&quot;, &quot;Segoe UI&quot;, Ubuntu, &quot;Droid Sans&quot;, sans-serif; font-size: 9px; font-weight: normal; text-rendering: geometricprecision;"><title
                   id="title246">float32[3,3,128,128]</title><tspan
                   style="font-weight: bold;"
                   id="tspan248">kernel</tspan><tspan
                   id="tspan250">〈3×3×128×128〉</tspan></text>
              <text
                 id="initializer-conv2d_3/bias:0"
                 xml:space="preserve"
                 x="6"
                 y="24"
                 style="font-family: -apple-system, BlinkMacSystemFont, &quot;Segoe WPC&quot;, &quot;Segoe UI&quot;, Ubuntu, &quot;Droid Sans&quot;, sans-serif; font-size: 9px; font-weight: normal; text-rendering: geometricprecision;"><title
                   id="title253">float32[128]</title><tspan
                   style="font-weight: bold;"
                   id="tspan255">bias</tspan><tspan
                   id="tspan257">〈128〉</tspan></text>
              <text
                 xml:space="preserve"
                 x="6"
                 y="36"
                 style="font-family: -apple-system, BlinkMacSystemFont, &quot;Segoe WPC&quot;, &quot;Segoe UI&quot;, Ubuntu, &quot;Droid Sans&quot;, sans-serif; font-size: 9px; font-weight: normal; text-rendering: geometricprecision;"
                 id="text264"><tspan
                   id="tspan260">filters</tspan><tspan
                   id="tspan262"> = 128</tspan></text>
              <text
                 xml:space="preserve"
                 x="6"
                 y="48"
                 style="font-family: -apple-system, BlinkMacSystemFont, &quot;Segoe WPC&quot;, &quot;Segoe UI&quot;, Ubuntu, &quot;Droid Sans&quot;, sans-serif; font-size: 9px; font-weight: normal; text-rendering: geometricprecision;"
                 id="text270"><tspan
                   id="tspan266">kernel_size</tspan><tspan
                   id="tspan268"> = 3, 3</tspan></text>
              <text
                 xml:space="preserve"
                 x="6"
                 y="60"
                 style="font-family: -apple-system, BlinkMacSystemFont, &quot;Segoe WPC&quot;, &quot;Segoe UI&quot;, Ubuntu, &quot;Droid Sans&quot;, sans-serif; font-size: 9px; font-weight: normal; text-rendering: geometricprecision;"
                 id="text276"><tspan
                   id="tspan272">activation</tspan><tspan
                   id="tspan274"> = relu</tspan></text>
              <line
                 class="node"
                 x1="0"
                 x2="105.140625"
                 y1="0"
                 y2="0"
                 style="stroke: rgb(51, 51, 51); fill: none; stroke-width: 1px;"
                 id="line278" />
            </g>
            <path
               class="node border"
               d="M5,0h95.140625a5,5 0 0 1 5,5v77a5,5 0 0 1 -5,5h-95.140625a5,5 0 0 1 -5,-5v-77a5,5 0 0 1 5,-5z"
               style="stroke: rgb(51, 51, 51); fill: none; stroke-width: 1px;"
               id="path282" />
          </g>
        </g>
      </g>
      <g
         id="node-max_pooling2d_3"
         class="node"
         transform="translate(52.5703125,623.5000085830688)"
         style="opacity: 1;">
        <g
           transform="translate(-42.703128814697266,-10.500000953674316)"
           id="g301">
          <g
             id="g299">
            <g
               class="node-item node-item-operator node-item-operator-pool"
               transform="translate(0,0)"
               id="g295">
              <path
                 d="M5,0h75.40625a5,5 0 0 1 5,5v11a5,5 0 0 1 -5,5h-75.40625a5,5 0 0 1 -5,-5v-11a5,5 0 0 1 5,-5z"
                 style="stroke: rgb(0, 0, 0); fill: rgb(51, 85, 51); stroke-width: 0;"
                 id="path289" />
              <text
                 x="6"
                 y="14"
                 style="font-family: -apple-system, BlinkMacSystemFont, &quot;Segoe WPC&quot;, &quot;Segoe UI&quot;, Ubuntu, &quot;Droid Sans&quot;, sans-serif; font-size: 11px; text-rendering: geometricprecision; fill: rgb(255, 255, 255);"
                 id="text291">MaxPooling2D</text>
              <title
                 id="title293">max_pooling2d_3</title>
            </g>
            <path
               class="node border"
               d="M5,0h75.40625a5,5 0 0 1 5,5v11a5,5 0 0 1 -5,5h-75.40625a5,5 0 0 1 -5,-5v-11a5,5 0 0 1 5,-5z"
               style="stroke: rgb(51, 51, 51); fill: none; stroke-width: 1px;"
               id="path297" />
          </g>
        </g>
      </g>
      <g
         id="node-flatten"
         class="node"
         transform="translate(52.5703125,664.5000104904175)"
         style="opacity: 1;">
        <g
           transform="translate(-24.007814407348633,-10.500000953674316)"
           id="g316">
          <g
             id="g314">
            <g
               class="node-item node-item-operator node-item-operator-shape"
               transform="translate(0,0)"
               id="g310">
              <path
                 d="M5,0h38.015625a5,5 0 0 1 5,5v11a5,5 0 0 1 -5,5h-38.015625a5,5 0 0 1 -5,-5v-11a5,5 0 0 1 5,-5z"
                 style="stroke: rgb(0, 0, 0); fill: rgb(108, 79, 71); stroke-width: 0;"
                 id="path304" />
              <text
                 x="6"
                 y="14"
                 style="font-family: -apple-system, BlinkMacSystemFont, &quot;Segoe WPC&quot;, &quot;Segoe UI&quot;, Ubuntu, &quot;Droid Sans&quot;, sans-serif; font-size: 11px; text-rendering: geometricprecision; fill: rgb(255, 255, 255);"
                 id="text306">Flatten</text>
              <title
                 id="title308">flatten</title>
            </g>
            <path
               class="node border"
               d="M5,0h38.015625a5,5 0 0 1 5,5v11a5,5 0 0 1 -5,5h-38.015625a5,5 0 0 1 -5,-5v-11a5,5 0 0 1 5,-5z"
               style="stroke: rgb(51, 51, 51); fill: none; stroke-width: 1px;"
               id="path312" />
          </g>
        </g>
      </g>
      <g
         id="node-dropout"
         class="node"
         transform="translate(52.5703125,714.5000114440918)"
         style="opacity: 1;">
        <g
           transform="translate(-50,-19.5)"
           id="g343">
          <g
             id="g341">
            <g
               class="node-item node-item-operator node-item-operator-dropout"
               transform="translate(0,0)"
               id="g325">
              <path
                 d="M5,0h90a5,5 0 0 1 5,5v16a0,0 0 0 1 0,0h-100a0,0 0 0 1 0,0v-16a5,5 0 0 1 5,-5z"
                 style="stroke: rgb(0, 0, 0); fill: rgb(69, 71, 112); stroke-width: 0;"
                 id="path319" />
              <text
                 x="6"
                 y="14"
                 style="font-family: -apple-system, BlinkMacSystemFont, &quot;Segoe WPC&quot;, &quot;Segoe UI&quot;, Ubuntu, &quot;Droid Sans&quot;, sans-serif; font-size: 11px; text-rendering: geometricprecision; fill: rgb(255, 255, 255);"
                 id="text321">Dropout</text>
              <title
                 id="title323">dropout</title>
            </g>
            <g
               class="node-attribute"
               transform="translate(0,21)"
               id="g337">
              <path
                 d="M0,0h100a0,0 0 0 1 0,0v13a5,5 0 0 1 -5,5h-90a5,5 0 0 1 -5,-5v-13a0,0 0 0 1 0,0z"
                 style="stroke: rgb(0, 0, 0); fill: rgb(255, 255, 255); stroke-width: 0;"
                 id="path327" />
              <text
                 xml:space="preserve"
                 x="6"
                 y="12"
                 style="font-family: -apple-system, BlinkMacSystemFont, &quot;Segoe WPC&quot;, &quot;Segoe UI&quot;, Ubuntu, &quot;Droid Sans&quot;, sans-serif; font-size: 9px; font-weight: normal; text-rendering: geometricprecision;"
                 id="text333"><tspan
                   id="tspan329">rate</tspan><tspan
                   id="tspan331"> = 0.2</tspan></text>
              <line
                 class="node"
                 x1="0"
                 x2="100"
                 y1="0"
                 y2="0"
                 style="stroke: rgb(51, 51, 51); fill: none; stroke-width: 1px;"
                 id="line335" />
            </g>
            <path
               class="node border"
               d="M5,0h90a5,5 0 0 1 5,5v29a5,5 0 0 1 -5,5h-90a5,5 0 0 1 -5,-5v-29a5,5 0 0 1 5,-5z"
               style="stroke: rgb(51, 51, 51); fill: none; stroke-width: 1px;"
               id="path339" />
          </g>
        </g>
      </g>
      <g
         id="node-dense"
         class="node"
         transform="translate(52.5703125,791.5000114440918)"
         style="opacity: 1;">
        <g
           transform="translate(-50,-37.5)"
           id="g390">
          <g
             id="g388">
            <g
               class="node-item node-item-operator node-item-operator-layer"
               transform="translate(0,0)"
               id="g352">
              <path
                 d="M5,0h90a5,5 0 0 1 5,5v16a0,0 0 0 1 0,0h-100a0,0 0 0 1 0,0v-16a5,5 0 0 1 5,-5z"
                 style="stroke: rgb(0, 0, 0); fill: rgb(51, 85, 136); stroke-width: 0;"
                 id="path346" />
              <text
                 x="6"
                 y="14"
                 style="font-family: -apple-system, BlinkMacSystemFont, &quot;Segoe WPC&quot;, &quot;Segoe UI&quot;, Ubuntu, &quot;Droid Sans&quot;, sans-serif; font-size: 11px; text-rendering: geometricprecision; fill: rgb(255, 255, 255);"
                 id="text348">Dense</text>
              <title
                 id="title350">dense</title>
            </g>
            <g
               class="node-attribute"
               transform="translate(0,21)"
               id="g384">
              <path
                 d="M0,0h100a0,0 0 0 1 0,0v49a5,5 0 0 1 -5,5h-90a5,5 0 0 1 -5,-5v-49a0,0 0 0 1 0,0z"
                 style="stroke: rgb(0, 0, 0); fill: rgb(255, 255, 255); stroke-width: 0;"
                 id="path354" />
              <text
                 id="initializer-dense/kernel:0"
                 xml:space="preserve"
                 x="6"
                 y="12"
                 style="font-family: -apple-system, BlinkMacSystemFont, &quot;Segoe WPC&quot;, &quot;Segoe UI&quot;, Ubuntu, &quot;Droid Sans&quot;, sans-serif; font-size: 9px; font-weight: normal; text-rendering: geometricprecision;"><title
                   id="title356">float32[128,512]</title><tspan
                   style="font-weight: bold;"
                   id="tspan358">kernel</tspan><tspan
                   id="tspan360">〈128×512〉</tspan></text>
              <text
                 id="initializer-dense/bias:0"
                 xml:space="preserve"
                 x="6"
                 y="24"
                 style="font-family: -apple-system, BlinkMacSystemFont, &quot;Segoe WPC&quot;, &quot;Segoe UI&quot;, Ubuntu, &quot;Droid Sans&quot;, sans-serif; font-size: 9px; font-weight: normal; text-rendering: geometricprecision;"><title
                   id="title363">float32[512]</title><tspan
                   style="font-weight: bold;"
                   id="tspan365">bias</tspan><tspan
                   id="tspan367">〈512〉</tspan></text>
              <text
                 xml:space="preserve"
                 x="6"
                 y="36"
                 style="font-family: -apple-system, BlinkMacSystemFont, &quot;Segoe WPC&quot;, &quot;Segoe UI&quot;, Ubuntu, &quot;Droid Sans&quot;, sans-serif; font-size: 9px; font-weight: normal; text-rendering: geometricprecision;"
                 id="text374"><tspan
                   id="tspan370">units</tspan><tspan
                   id="tspan372"> = 512</tspan></text>
              <text
                 xml:space="preserve"
                 x="6"
                 y="48"
                 style="font-family: -apple-system, BlinkMacSystemFont, &quot;Segoe WPC&quot;, &quot;Segoe UI&quot;, Ubuntu, &quot;Droid Sans&quot;, sans-serif; font-size: 9px; font-weight: normal; text-rendering: geometricprecision;"
                 id="text380"><tspan
                   id="tspan376">activation</tspan><tspan
                   id="tspan378"> = relu</tspan></text>
              <line
                 class="node"
                 x1="0"
                 x2="100"
                 y1="0"
                 y2="0"
                 style="stroke: rgb(51, 51, 51); fill: none; stroke-width: 1px;"
                 id="line382" />
            </g>
            <path
               class="node border"
               d="M5,0h90a5,5 0 0 1 5,5v65a5,5 0 0 1 -5,5h-90a5,5 0 0 1 -5,-5v-65a5,5 0 0 1 5,-5z"
               style="stroke: rgb(51, 51, 51); fill: none; stroke-width: 1px;"
               id="path386" />
          </g>
        </g>
      </g>
      <g
         id="node-dense_1"
         class="node"
         transform="translate(52.5703125,886.5000114440918)"
         style="opacity: 1;">
        <g
           transform="translate(-50,-37.5)"
           id="g437">
          <g
             id="g435">
            <g
               class="node-item node-item-operator node-item-operator-layer"
               transform="translate(0,0)"
               id="g399">
              <path
                 d="M5,0h90a5,5 0 0 1 5,5v16a0,0 0 0 1 0,0h-100a0,0 0 0 1 0,0v-16a5,5 0 0 1 5,-5z"
                 style="stroke: rgb(0, 0, 0); fill: rgb(51, 85, 136); stroke-width: 0;"
                 id="path393" />
              <text
                 x="6"
                 y="14"
                 style="font-family: -apple-system, BlinkMacSystemFont, &quot;Segoe WPC&quot;, &quot;Segoe UI&quot;, Ubuntu, &quot;Droid Sans&quot;, sans-serif; font-size: 11px; text-rendering: geometricprecision; fill: rgb(255, 255, 255);"
                 id="text395">Dense</text>
              <title
                 id="title397">dense_1</title>
            </g>
            <g
               class="node-attribute"
               transform="translate(0,21)"
               id="g431">
              <path
                 d="M0,0h100a0,0 0 0 1 0,0v49a5,5 0 0 1 -5,5h-90a5,5 0 0 1 -5,-5v-49a0,0 0 0 1 0,0z"
                 style="stroke: rgb(0, 0, 0); fill: rgb(255, 255, 255); stroke-width: 0;"
                 id="path401" />
              <text
                 id="initializer-dense_1/kernel:0"
                 xml:space="preserve"
                 x="6"
                 y="12"
                 style="font-family: -apple-system, BlinkMacSystemFont, &quot;Segoe WPC&quot;, &quot;Segoe UI&quot;, Ubuntu, &quot;Droid Sans&quot;, sans-serif; font-size: 9px; font-weight: normal; text-rendering: geometricprecision;"><title
                   id="title403">float32[512,43]</title><tspan
                   style="font-weight: bold;"
                   id="tspan405">kernel</tspan><tspan
                   id="tspan407">〈512×43〉</tspan></text>
              <text
                 id="initializer-dense_1/bias:0"
                 xml:space="preserve"
                 x="6"
                 y="24"
                 style="font-family: -apple-system, BlinkMacSystemFont, &quot;Segoe WPC&quot;, &quot;Segoe UI&quot;, Ubuntu, &quot;Droid Sans&quot;, sans-serif; font-size: 9px; font-weight: normal; text-rendering: geometricprecision;"><title
                   id="title410">float32[43]</title><tspan
                   style="font-weight: bold;"
                   id="tspan412">bias</tspan><tspan
                   id="tspan414">〈43〉</tspan></text>
              <text
                 xml:space="preserve"
                 x="6"
                 y="36"
                 style="font-family: -apple-system, BlinkMacSystemFont, &quot;Segoe WPC&quot;, &quot;Segoe UI&quot;, Ubuntu, &quot;Droid Sans&quot;, sans-serif; font-size: 9px; font-weight: normal; text-rendering: geometricprecision;"
                 id="text421"><tspan
                   id="tspan417">units</tspan><tspan
                   id="tspan419"> = 43</tspan></text>
              <text
                 xml:space="preserve"
                 x="6"
                 y="48"
                 style="font-family: -apple-system, BlinkMacSystemFont, &quot;Segoe WPC&quot;, &quot;Segoe UI&quot;, Ubuntu, &quot;Droid Sans&quot;, sans-serif; font-size: 9px; font-weight: normal; text-rendering: geometricprecision;"
                 id="text427"><tspan
                   id="tspan423">activation</tspan><tspan
                   id="tspan425"> = softmax</tspan></text>
              <line
                 class="node"
                 x1="0"
                 x2="100"
                 y1="0"
                 y2="0"
                 style="stroke: rgb(51, 51, 51); fill: none; stroke-width: 1px;"
                 id="line429" />
            </g>
            <path
               class="node border"
               d="M5,0h90a5,5 0 0 1 5,5v65a5,5 0 0 1 -5,5h-90a5,5 0 0 1 -5,-5v-65a5,5 0 0 1 5,-5z"
               style="stroke: rgb(51, 51, 51); fill: none; stroke-width: 1px;"
               id="path433" />
          </g>
        </g>
      </g>
      <g
         class="node graph-input"
         transform="translate(52.5703125,10.500000953674316)"
         style="opacity: 1;"
         id="g454">
        <g
           transform="translate(-20.125,-10.500000953674316)"
           id="g452">
          <g
             id="g450">
            <g
               class="node-item graph-item-input"
               transform="translate(0,0)"
               id="g446">
              <path
                 d="M5,0h30.25a5,5 0 0 1 5,5v11a5,5 0 0 1 -5,5h-30.25a5,5 0 0 1 -5,-5v-11a5,5 0 0 1 5,-5z"
                 style="stroke: rgb(0, 0, 0); fill: rgb(238, 238, 238); stroke-width: 0;"
                 id="path440" />
              <text
                 x="6"
                 y="14"
                 style="font-family: -apple-system, BlinkMacSystemFont, &quot;Segoe WPC&quot;, &quot;Segoe UI&quot;, Ubuntu, &quot;Droid Sans&quot;, sans-serif; font-size: 11px; text-rendering: geometricprecision;"
                 id="text442">input</text>
              <title
                 id="title444">float32[?,48,48,3]</title>
            </g>
            <path
               class="node border"
               d="M5,0h30.25a5,5 0 0 1 5,5v11a5,5 0 0 1 -5,5h-30.25a5,5 0 0 1 -5,-5v-11a5,5 0 0 1 5,-5z"
               style="stroke: rgb(51, 51, 51); fill: none; stroke-width: 1px;"
               id="path448" />
          </g>
        </g>
      </g>
      <g
         class="node"
         transform="translate(52.5703125,954.5000123977661)"
         style="opacity: 1;"
         id="g468">
        <g
           transform="translate(-27.125,-10.500000953674316)"
           id="g466">
          <g
             id="g464">
            <g
               class="node-item graph-item-output"
               transform="translate(0,0)"
               id="g460">
              <path
                 d="M5,0h44.25a5,5 0 0 1 5,5v11a5,5 0 0 1 -5,5h-44.25a5,5 0 0 1 -5,-5v-11a5,5 0 0 1 5,-5z"
                 style="stroke: rgb(0, 0, 0); fill: rgb(238, 238, 238); stroke-width: 0;"
                 id="path456" />
              <text
                 x="6"
                 y="14"
                 style="font-family: -apple-system, BlinkMacSystemFont, &quot;Segoe WPC&quot;, &quot;Segoe UI&quot;, Ubuntu, &quot;Droid Sans&quot;, sans-serif; font-size: 11px; text-rendering: geometricprecision;"
                 id="text458">dense_1</text>
            </g>
            <path
               class="node border"
               d="M5,0h44.25a5,5 0 0 1 5,5v11a5,5 0 0 1 -5,5h-44.25a5,5 0 0 1 -5,-5v-11a5,5 0 0 1 5,-5z"
               style="stroke: rgb(51, 51, 51); fill: none; stroke-width: 1px;"
               id="path462" />
          </g>
        </g>
      </g>
    </g>
  </g>
</svg>
